<svg width="184" height="184" viewBox="0 0 184 184" fill="none" xmlns="http://www.w3.org/2000/svg">
<path d="M137.382 137.382C162.673 112.09 162.673 71.0852 137.382 45.7939C112.09 20.5026 71.0852 20.5026 45.7939 45.7939C20.5026 71.0852 20.5026 112.09 45.7939 137.382C71.0852 162.673 112.09 162.673 137.382 137.382Z" fill="#B9C4E1"/>
<path d="M91.589 113.548C105.503 113.548 116.782 98.9665 116.782 80.9797C116.782 62.9929 105.503 48.4117 91.589 48.4117C77.6753 48.4117 66.396 62.9929 66.396 80.9797C66.396 98.9665 77.6753 113.548 91.589 113.548Z" fill="white"/>
<path d="M91.589 115.967C70.515 115.967 51.966 122.407 41.133 132.17C53.004 146.911 71.19 156.351 91.589 156.351C111.989 156.351 130.175 146.91 142.045 132.17C131.212 122.407 112.663 115.967 91.589 115.967Z" fill="white"/>
<path d="M94.402 132.716H88.777C83.483 132.716 79.152 128.385 79.152 123.091V101.213C79.152 95.9187 83.483 91.5877 88.777 91.5877H94.402C99.696 91.5877 104.027 95.9187 104.027 101.213V123.091C104.027 128.385 99.696 132.716 94.402 132.716Z" fill="white"/>
<path d="M69.874 82.4907C71.341 86.7147 70.759 90.7527 68.574 91.5117C66.389 92.2707 63.429 89.4617 61.963 85.2377C60.496 81.0137 61.078 76.9757 63.263 76.2167C65.448 75.4577 68.408 78.2667 69.874 82.4907Z" fill="white"/>
<path d="M113.304 82.4907C111.837 86.7147 112.419 90.7527 114.604 91.5117C116.789 92.2707 119.749 89.4617 121.215 85.2377C122.682 81.0137 122.1 76.9757 119.915 76.2167C117.73 75.4577 114.771 78.2667 113.304 82.4907Z" fill="white"/>
<path d="M69.54 82.3537C66.266 76.3987 62.898 70.0807 63.066 63.2877C63.234 56.4947 68.406 49.3237 75.197 49.5707C76.382 49.6137 77.57 49.8747 78.743 49.7077C81.092 49.3727 82.832 47.4537 84.737 46.0397C89.034 42.8517 95.017 42.0957 99.972 44.1137C103.034 45.3607 105.626 47.5427 108.612 48.9617C114.176 51.6057 121.033 51.3287 126.365 48.2437C125.253 50.3357 123.37 52.0077 121.161 52.8647C123.198 53.5147 125.455 53.4517 127.453 52.6897C126.249 54.8707 124.256 56.6067 121.93 57.5007C123.654 57.6197 125.378 57.7387 127.103 57.8567C125.632 59.9397 123.53 61.5717 121.147 62.4797C122.498 62.5237 123.849 62.5677 125.201 62.6107C124.194 65.5917 121.585 67.9777 118.526 68.7137C119.397 68.7257 120.269 68.7377 121.14 68.7487C118.285 72.8677 115.431 76.9867 112.576 81.1057C111.76 82.2827 110.913 83.4907 109.708 84.2637C108.707 84.9057 107.528 85.2007 106.367 85.4607C97.911 87.3567 89.159 87.9267 80.529 87.1427C77.577 86.8747 74.489 86.3887 72.144 84.5767C69.799 82.7647 68.541 79.2217 70.156 76.7347" fill="white"/>
<path d="M75.348 122.121C75.534 118.703 75.96 115.299 76.622 111.941C78.311 113.873 81.179 114.115 83.743 114.219C87.625 114.377 91.507 114.535 95.389 114.692C95.841 117.34 96.156 120.454 94.243 122.34C93.356 123.215 92.131 123.648 90.931 123.982C88.315 124.71 85.602 125.089 82.886 125.106C79.664 125.127 75.825 124.161 74.793 121.108C75.143 120.821 75.492 120.534 75.842 120.247" fill="white"/>
<path d="M107.83 122.121C107.644 118.703 107.218 115.299 106.557 111.941C104.868 113.873 102 114.115 99.436 114.219C95.554 114.377 91.672 114.535 87.79 114.692C87.338 117.34 87.023 120.454 88.936 122.34C89.824 123.215 91.048 123.648 92.248 123.982C94.864 124.71 97.577 125.089 100.293 125.106C103.515 125.127 107.355 124.161 108.386 121.108C108.036 120.821 107.687 120.534 107.337 120.247" fill="white"/>
</svg>
